<?xml version="1.0" encoding="UTF-8"?>
<svg width="101px" height="94px" viewBox="0 0 101 94" version="1.1" xmlns="http://www.w3.org/2000/svg" xmlns:xlink="http://www.w3.org/1999/xlink">
    <!-- Generator: Sketch 42 (36781) - http://www.bohemiancoding.com/sketch -->
    <title>codemirror 2</title>
    <desc>Created with Sketch.</desc>
    <defs>
        <polygon id="path-1" points="0.123574919 13.2123371 6.48391694 13.2123371 6.48391694 0.0238192182 0.123574919 0.0238192182"></polygon>
        <polygon id="path-3" points="0.162052117 18.0124186 8.11685668 18.0124186 8.11685668 0.0109934853 0.162052117 0.0109934853"></polygon>
    </defs>
    <g id="Page-1" stroke="none" stroke-width="1" fill="none" fill-rule="evenodd">
        <g id="codemirror" transform="translate(0.000000, 1.000000)">
            <g id="g10" transform="translate(50.020358, 46.416938) scale(-1, 1) rotate(-180.000000) translate(-50.020358, -46.416938) translate(0.040717, 0.000000)">
                <path d="M45.8020684,91.4850122 C45.8020684,91.4850122 47.2299043,88.4417549 45.2016694,85.087673 C44.1879784,83.4113355 18.6323555,77.9726181 8.65678542,64.1289699 C2.54929357,54.560566 -6.81552728,26.8732695 23.1111828,8.55079397 C36.5476649,1.62896987 42.2479906,1.83255293 42.2479906,1.83255293 C42.2479906,1.83255293 33.2903359,8.14362785 38.9906616,12.4188721 C44.6909874,16.6941164 53.0378929,18.7299471 55.2773066,24.6338559 C57.9238864,22.5980252 62.1991307,18.3227809 66.2707919,18.7299471 C65.8636258,21.3765269 64.8457105,22.3944422 68.1030395,22.8016083 C71.3603685,23.2087744 72.989033,23.2087744 72.989033,23.2087744 C72.989033,23.2087744 69.9352871,25.6517712 66.474375,25.8553542 C63.0134629,26.0589373 56.498805,32.7771783 56.702388,35.6273412 C60.9776323,38.0703379 66.474375,42.1419992 69.731704,40.9205008 C72.989033,39.6990024 76.246362,37.6631718 76.8571112,35.8309243 C76.8571112,34.6094259 76.246362,32.5735953 78.8929418,34.2022598 C81.5395216,35.8309243 80.9287724,36.8488396 81.9466877,39.0882533 C82.964603,41.3276669 83.1681861,41.7348331 80.9287724,43.5670806 C78.6893587,45.3993282 73.3961991,49.6745725 69.1209548,48.4530741 C64.8457105,47.2315757 55.8880558,43.7706637 51.4092284,48.045908 C53.241476,52.1175692 56.0916388,58.6322272 54.6665574,63.1110546 C57.3131372,65.1468852 60.3668831,67.3862989 60.7740493,71.050794 C63.8277952,71.4579601 70.3424532,73.2902077 69.1209548,76.5475366 C67.8994564,79.8048656 59.2281983,94.2937683 45.9952993,91.4436055" id="path22" fill="#FFFFFF" fill-rule="nonzero"></path>
                <path d="M88.0541796,58.2250611 C90.2935932,64.1289699 93.9580884,74.1045399 90.4971763,74.511706 C87.0362643,74.9188721 83.1681861,65.5540513 82.1502708,63.1110546 C81.1323555,60.6680578 77.0606942,48.4530741 79.3001079,46.8244096 C81.5395216,45.1957451 88.0541796,58.2250611 88.0541796,58.2250611" id="path26" fill="#FFFFFF" fill-rule="nonzero"></path>
                <path d="M69.1209548,74.1045399 C69.7581698,75.105965 70.3059833,74.2358673 67.557612,74.0322842 C64.8092406,73.8287011 61.5270827,72.9767854 60.9637622,71.7830252 C59.9068119,69.5431881 59.5525509,64.0271783 55.5826812,62.80568 C55.3790981,61.3805985 55.5826812,58.1232695 61.1812154,57.5125204 C66.7797496,56.9017712 66.9833327,60.5662663 70.2406616,60.4644748 C73.4979906,60.3626832 73.192616,61.5841816 72.0729092,62.5003054 C70.9532024,63.4164292 67.0851242,69.6257125 67.0851242,71.6615432 C67.0851242,73.6973738 68.4084141,72.9848331 69.1209548,74.1045399" id="path30" fill="#DA687D" fill-rule="nonzero"></path>
                <path d="M19.1413131,12.7243485 C19.1413131,12.7243485 17.4108571,17.3049674 22.5004336,19.7479642 C27.5900102,22.1909609 32.1706291,20.2569218 33.0867529,18.5264658 C34.0028766,16.7960098 31.5598799,9.87418567 22.8058082,9.77239414 C20.6681861,11.5028502 19.1413131,12.7243485 19.1413131,12.7243485" id="path34" fill="#DA687D" fill-rule="nonzero"></path>
                <g id="g44" transform="translate(82.354057, 58.021173)">
                    <g id="g46-Clipped">
                        <mask id="mask-2" fill="white">
                            <use xlink:href="#path-1"></use>
                        </mask>
                        <g id="path42"></g>
                        <g id="g46" opacity="0.69999701" mask="url(#mask-2)">
                            <g transform="translate(0.000000, -0.203583)" id="g48">
                                <g transform="translate(0.052586, 0.170684)">
                                    <path d="M6.31107492,13.232899 C6.39719055,12.9134772 6.37174267,12.5816368 6.3629886,12.2479642 C6.35443811,11.9193811 6.32369707,11.5736971 6.24002443,11.2375814 C6.26160423,11.1608306 6.22333062,11.0718648 6.23635993,10.9930782 C6.15289088,10.8882329 6.19686482,10.8092427 6.17854235,10.7174267 C6.31311075,10.5802117 6.48839577,10.4501221 6.41307003,10.2772801 C6.36034202,10.1559446 6.23513844,10.1335505 6.11502443,10.074715 C6.03583062,9.78908795 5.97068404,9.44381107 5.90574104,9.12825733 C5.88599349,9.03135179 5.89678339,8.91429153 5.86767101,8.82593648 C5.79967427,8.62031759 5.72699511,8.42324919 5.66999186,8.19686482 C5.62174267,8.00447883 5.67691368,7.64942997 5.45358306,7.62459283 C5.36746743,7.4110342 5.31860749,7.24979642 5.21640879,7.04845277 C5.15818404,7.01526873 5.12438925,7.07003257 5.07552932,7.05028502 C5.01343648,6.97943811 5.0156759,6.88273616 4.95806189,6.82349349 C4.91286645,6.77687296 4.85565961,6.79030945 4.82267915,6.74511401 C4.7487785,6.64332248 4.76852606,6.49267101 4.71620521,6.35789902 C4.62092834,6.2764658 4.54071661,6.17365635 4.48269544,6.05700326 C4.3629886,5.81697883 4.34059446,5.51119707 4.15879479,5.32552932 C4.10179153,5.26730456 4.00386808,5.2512215 3.95297231,5.19381107 C3.90451954,5.13904723 3.86034202,5.05842834 3.81270358,4.99429967 C3.74389251,4.90228013 3.67650651,4.78155537 3.61482085,4.67202769 C3.41042345,4.30822476 3.12968241,3.91673453 2.94279316,3.51893322 C2.90757329,3.44381107 2.90228013,3.35504886 2.86868893,3.28175896 C2.79112378,3.11339577 2.6767101,2.9603013 2.61278502,2.80679967 C2.50773616,2.55456026 2.34609121,2.12703583 2.09609121,1.90696254 C2.06575733,1.88029316 1.99979642,1.85525244 1.97271987,1.82267915 C1.9362785,1.77890879 1.94503257,1.70704397 1.90757329,1.65818404 C1.89006515,1.63517915 1.82614007,1.62479642 1.79824919,1.59670195 C1.75590391,1.55374593 1.73595277,1.4987785 1.7007329,1.46661238 C1.61400651,1.38762215 1.49409609,1.35362378 1.41958469,1.27137622 C1.36319218,1.2090798 1.33876221,1.12011401 1.27870521,1.04193811 C1.2139658,0.957858306 1.1237785,0.88232899 1.05679967,0.79723127 C0.854438111,0.53990228 0.775855049,0.227198697 0.506718241,0.105863192 C0.426710098,0.0696254072 0.327565147,0.0814332248 0.243892508,0.0567996743 C0.167752443,0.126832248 0.228013029,0.223330619 0.210708469,0.293770358 C0.199511401,0.338965798 0.152687296,0.371539088 0.14026873,0.412459283 C0.111156352,0.508957655 0.0696254072,0.684446254 0.0710504886,0.794788274 C0.07247557,0.904315961 0.133143322,0.992467427 0.147394137,1.12296417 C0.159812704,1.23473127 0.119503257,1.37662866 0.111359935,1.50081433 C0.107084691,1.56311075 0.124389251,1.62785016 0.123371336,1.69543974 C0.121742671,1.80394951 0.109934853,1.85850977 0.125,1.98900651 C0.142508143,2.14026873 0.109934853,2.28664495 0.0901872964,2.42711726 C0.159812704,2.77422638 0.198289902,3.03949511 0.312092834,3.42854235 C0.364617264,3.60789902 0.458876221,3.91042345 0.552320847,4.10973127 C0.73269544,4.49552117 0.886197068,4.91673453 1.08163681,5.32003257 C1.1465798,5.45358306 1.24959283,5.56351792 1.31351792,5.6970684 C1.35057003,5.77463355 1.35647394,5.86563518 1.39393322,5.94442182 C1.72312704,6.63619707 2.18322476,7.21335505 2.52687296,7.9254886 C2.81168567,8.50753257 3.11319218,9.02850163 3.49287459,9.66510586 C3.66429153,9.9531759 3.81209283,10.2589577 3.98839577,10.4969463 C4.12276059,10.6783388 4.32064332,10.9881922 4.46355863,11.2941775 C4.52015472,11.415513 4.51832248,11.5126221 4.66815961,11.5185261 C4.82247557,11.7115228 4.93811075,11.9293567 5.09955212,12.0934446 C5.14026873,12.1345684 5.20337948,12.1551303 5.2487785,12.194829 C5.3017101,12.2412459 5.32675081,12.3108713 5.3786645,12.3532166 C5.48880293,12.4429967 5.67019544,12.5225977 5.79295603,12.6909609 C5.82552932,12.7357492 5.83957655,12.7827769 5.87561075,12.8298046 C5.95989414,12.9395358 6.11807818,13.2096906 6.24409609,13.2396173 C6.2620114,13.2502036 6.28542345,13.2453176 6.31107492,13.232899" id="path50" fill="#DA687D"></path>
                                </g>
                            </g>
                        </g>
                    </g>
                </g>
                <g id="g60" transform="translate(79.503895, 49.063518)">
                    <g id="g62-Clipped">
                        <mask id="mask-4" fill="white">
                            <use xlink:href="#path-3"></use>
                        </mask>
                        <g id="path58"></g>
                        <g id="g62" opacity="0.69999701" mask="url(#mask-4)">
                            <g transform="translate(-0.203583, -0.203583)" id="g64">
                                <g transform="translate(0.182512, 0.091348)">
                                    <path d="M7.93973941,18.1188925 C8.07980456,17.7247557 8.09548046,17.2829805 8.13008958,16.843241 C8.1262215,16.4075733 8.09588762,15.9110342 7.98452769,15.4297638 C8.00447883,15.329601 7.95297231,15.2041938 7.96233713,15.0993485 C7.85667752,14.9462541 7.90228013,14.8448697 7.87316775,14.7174267 C8.01934039,14.5474349 8.21233713,14.3898616 8.10830619,14.1400651 C8.03298046,13.9678339 7.88070033,13.9289495 7.73269544,13.8389658 C7.60240228,13.4511401 7.48310261,12.9710912 7.35688111,12.5553746 C7.31881107,12.4260993 7.3137215,12.2713762 7.26587948,12.1528909 C7.15451954,11.8756107 7.0396987,11.6121743 6.94075733,11.3179967 C6.85606678,11.0659609 6.86828176,10.6058632 6.60443811,10.5669788 C6.48025244,10.2911238 6.40533388,10.0838762 6.26364007,9.82369707 C6.19238599,9.77951954 6.15940554,9.84792345 6.10057003,9.82105049 C6.02076547,9.72821661 6.01058632,9.60464169 5.9387215,9.52687296 C5.88395765,9.46620521 5.81962541,9.48086319 5.77890879,9.42223127 C5.6875,9.2896987 5.70032573,9.10057003 5.63171824,8.92854235 C5.57430782,8.87438925 5.52056189,8.8137215 5.47210912,8.74776059 C5.44788274,8.71478013 5.42467427,8.68057818 5.40350163,8.64495114 L5.37235342,8.59079805 L5.35769544,8.56311075 L5.35077362,8.54906352 L5.35016287,8.54824919 L5.35016287,8.5480456 C5.37031759,8.59649837 5.35586319,8.56148208 5.36034202,8.57227199 L5.36013844,8.57186482 L5.35993485,8.57166124 L5.35912052,8.56962541 L5.35749186,8.56575733 L5.35423453,8.55822476 C5.21233713,8.22536645 5.18098534,7.81921824 4.96844463,7.54947068 C4.9002443,7.46376221 4.7909202,7.43200326 4.73595277,7.35179153 C4.68322476,7.27544788 4.63599349,7.16612378 4.5840798,7.07756515 C4.5095684,6.95032573 4.43709283,6.7860342 4.37113192,6.6370114 C4.1502443,6.1370114 3.84771987,5.56331433 3.64393322,5.00223941 C3.60565961,4.89576547 3.6021987,4.77707655 3.56555375,4.6730456 C3.47964169,4.43424267 3.35749186,4.2103013 3.28175896,3.99267101 C3.15431596,3.6357899 2.98167752,3.03033388 2.66897394,2.69442182 C2.63192182,2.65370521 2.55354235,2.60993485 2.51995114,2.56209283 C2.47516287,2.49796417 2.48106678,2.40207655 2.43444625,2.33061889 C2.41286645,2.29723127 2.3377443,2.27463355 2.30374593,2.23289902 C2.25203583,2.16917752 2.22577362,2.09242671 2.18281759,2.04438111 C2.08041531,1.92609935 1.93241042,1.86828176 1.83387622,1.75162866 C1.7595684,1.66307003 1.71946254,1.54214169 1.63884365,1.43241042 C1.55211726,1.31473941 1.43709283,1.20765472 1.34812704,1.08978013 C1.21579805,0.900855049 1.09344463,0.726180782 0.975977199,0.558835505 C0.855456026,0.393322476 0.728623779,0.250610749 0.559242671,0.175285016 C0.458469055,0.130700326 0.347109121,0.150855049 0.245928339,0.123167752 C0.174063518,0.219462541 0.263436482,0.341205212 0.258346906,0.433428339 C0.25468241,0.492060261 0.20745114,0.536034202 0.201343648,0.589372964 C0.187092834,0.714576547 0.172638436,0.937907166 0.194218241,1.07532573 C0.214372964,1.21294788 0.305781759,1.31779316 0.339169381,1.48350977 C0.364617264,1.62764658 0.332247557,1.80741042 0.334079805,1.96376221 C0.334894137,2.04254886 0.360545603,2.12479642 0.365228013,2.20928339 C0.372964169,2.34527687 0.363599349,2.41266287 0.391693811,2.57471498 C0.42487785,2.76241857 0.384771987,2.95215798 0.367060261,3.1262215 C0.453786645,3.57227199 0.506718241,3.90105863 0.624592834,4.42141694 C0.68017101,4.66083062 0.784609121,5.05333876 0.882125407,5.33509772 C0.978216612,5.60280945 1.0661645,5.88090391 1.15635179,6.1622557 C1.24694625,6.44727199 1.34079805,6.74063518 1.44625407,7.02728013 C1.51689739,7.21844463 1.6286645,7.38029316 1.70561889,7.58265472 C1.74898208,7.69767915 1.75631107,7.82532573 1.80028502,7.94238599 C1.89698697,8.19686482 2.00183225,8.45419381 2.11400651,8.68668567 C2.22658795,8.91530945 2.34405537,9.14026873 2.46233713,9.36583876 L2.65329805,9.73371336 C2.71966612,9.85179153 2.78623779,9.97007329 2.85301303,10.0889658 C2.98513844,10.3275651 3.1142101,10.5708469 3.23697068,10.8236971 C3.44605049,11.2239414 3.65899837,11.603013 3.88599349,11.9892101 C4.11319218,12.3646173 4.35912052,12.7540717 4.62479642,13.1734528 C4.8605456,13.5506922 5.08245114,13.952158 5.30822476,14.2636401 C5.47658795,14.5012215 5.75061075,14.9075733 5.92752443,15.3072068 C5.99714984,15.4660016 5.99857492,15.5881515 6.17121336,15.6089169 C6.35586319,15.8682818 6.50692182,16.1579805 6.67039902,16.3770358 C6.7139658,16.4332248 6.78501629,16.4676303 6.83489414,16.5240228 C6.89311889,16.5897801 6.91795603,16.6791531 6.9759772,16.7408388 C7.09446254,16.8737785 7.31636808,17.0008143 7.42589577,17.2638436 C7.45663681,17.3314332 7.46620521,17.3967834 7.50081433,17.4686482 C7.58163681,17.6359935 7.72434853,18.0344055 7.86319218,18.1089169 C7.88192182,18.1278502 7.90899837,18.1278502 7.93973941,18.1188925" id="path66" fill="#DA687D"></path>
                                </g>
                            </g>
                        </g>
                    </g>
                </g>
                <path d="M82.9984996,62.5003054 C82.9984996,62.5003054 81.3698351,56.2570236 82.0483774,51.0996539 C82.1841673,52.7283184 82.9984996,62.5003054 82.9984996,62.5003054" id="path70" fill="#FFFFFF" fill-rule="nonzero"></path>
                <path d="M84.9326405,66.7193811 C84.8084548,67.1564739 83.9967691,54.6106678 84.2339434,54.1713355 C84.4713213,53.7317997 85.6889515,64.0603827 84.9326405,66.7193811" id="path74" fill="#FFFFFF" fill-rule="nonzero"></path>
                <path d="M46.0604906,90.7173636 C46.0604906,90.7173636 47.0106128,85.2980232 38.1885444,82.4478603 C29.3666796,79.5976975 17.2071722,77.1582858 8.24951751,66.4361767 C-0.708137296,55.7142712 -2.33680179,37.9347516 3.77069015,26.2625204 C9.878182,14.5904927 24.8075387,0.0680985342 51.6805029,0.0680985342 C78.553467,0.0680985342 99.8997862,20.7329642 99.8997862,34.9837785 C99.8997862,42.4485586 95.7982186,40.7842264 94.3797679,33.7809528 C93.099487,27.4598656 81.2680436,3.86838355 51.5449165,3.86838355 C21.8217895,3.86838355 6.62085301,21.9194829 4.7208123,37.3917956 C2.820568,52.8641083 7.14324084,66.1925387 22.7513436,74.2000713 C38.3594463,82.2078074 48.2644524,79.0177321 46.0928318,90.6897598" id="path78" fill="#2D2B2C" fill-rule="nonzero"></path>
                <path d="M38.6516958,48.9281352 C38.6516958,48.9281352 36.8872414,40.7846091 28.3367529,36.8489414 C19.7862643,32.9128664 16.1217691,30.7414495 14.9002708,23.9552117 C18.1575998,29.3839577 27.6582105,30.4698697 32.9513701,35.7630293 C38.2445297,41.0561889 38.6516958,48.9281352 38.6516958,48.9281352" id="path82" fill="#2D2B2C" fill-rule="nonzero"></path>
                <path d="M40.9589027,67.793465 C40.9589027,67.793465 48.2878929,58.2928542 56.9741714,62.9074715 C65.6602463,67.5220888 61.1816226,78.2439943 61.0458327,78.9227402 C60.9100428,79.6012826 61.9957512,66.9791327 55.4810932,64.8075122 C48.9664353,62.6360953 40.9589027,67.793465 40.9589027,67.793465" id="path86" fill="#2D2B2C" fill-rule="nonzero"></path>
                <path d="M21.8218913,11.0618689 C21.8218913,11.0618689 26.436305,10.7902891 29.8294239,14.5903705 C33.2225428,18.3908591 31.322502,24.3623575 36.8870379,26.5341816 C42.4515737,28.7055985 46.2518587,27.3485138 46.2518587,27.3485138 C46.2518587,27.3485138 36.3440818,25.991022 35.5297496,20.2906963 C34.7154173,14.5903705 33.3583327,12.0117875 31.1867121,10.2475366 C29.0150916,8.48287866 26.1649287,8.21170603 26.1649287,8.21170603 L21.8218913,11.0618689 L21.8218913,11.0618689 Z" id="path90" fill="#2D2B2C" fill-rule="nonzero"></path>
                <path d="M42.7569483,40.615228 C42.7569483,40.615228 51.0067447,41.9961319 54.7683489,50.387215 C57.8560932,57.2750407 55.7862643,63.2129479 55.7862643,63.2129479 L51.6128115,62.6021987 C51.6128115,62.6021987 53.3432675,57.6144137 52.0199776,53.1355863 C50.6966877,48.656759 47.6429418,43.4653909 42.7569483,40.615228" id="path94" fill="#2D2B2C" fill-rule="nonzero"></path>
                <path d="M87.1606331,59.6828379 C84.2166185,52.3273819 79.8778563,47.0468445 79.3705273,47.3306393 C78.455625,47.8422435 79.2976445,54.2597923 82.2418628,61.6152484 C85.1856739,68.9707044 88.8444686,74.5702565 90.2027748,74.0366653 C91.561081,73.5030741 90.1044442,67.038294 87.1606331,59.6828379 M91.4356739,74.4438314 C88.0883612,76.2626425 83.9755761,69.4664292 80.5895827,61.5501018 C77.2033856,53.6337744 76.8147455,47.2526669 79.4171478,46.1111767 C82.8967895,44.5851181 86.1612439,50.6480252 89.5472374,58.5643526 C92.9332309,66.48068 94.4332309,72.8151669 91.4356739,74.4438314" id="path98" fill="#2D2B2C" fill-rule="nonzero"></path>
                <path d="M30.6436543,34.5415309 C30.6436543,34.5415309 32.7468709,28.2229235 43.2658042,29.5199511 C53.173581,30.7414495 57.4331494,34.5574104 63.4883204,38.3420195 C67.8315615,41.0561889 67.5599817,39.8346906 68.1029377,39.6991042 C68.6458937,39.5635179 71.0888905,38.0704397 73.6674735,38.3420195 C73.8032634,36.9845277 72.4461787,38.0704397 71.9032227,36.8489414 C71.6318465,36.0346091 73.9634833,32.2023616 77.3319686,32.7772801 C82.8967081,33.7271987 81.3358367,36.0346091 82.4217488,38.6131922 C83.5074572,41.1917752 84.2539963,42.5492671 78.8250468,46.2137622 C74.6175957,50.0138436 72.3103888,49.0637215 70.2745582,49.0637215 C68.2387276,49.0637215 62.945568,46.2137622 59.2810729,46.8923046 C55.6165778,47.5708469 53.3091673,48.9281352 53.3091673,48.9281352 L50.8663742,46.2137622 C50.8663742,46.2137622 55.344998,42.8208469 60.5025713,44.0423453 C65.659941,45.2638436 69.4604296,49.1995114 73.9392569,47.1636808 C78.4180843,45.1278502 79.289827,43.7636401 80.6572944,42.7528502 C82.2181657,41.5989414 82.353752,40.3778502 81.2680436,39.2919381 C80.1821315,38.2060261 81.2682471,37.3916938 80.5897048,36.1701954 C79.9109589,34.9486971 76.5180436,34.4059446 76.5180436,34.4059446 C76.5180436,34.4059446 80.2381169,39.1854642 75.7037113,39.5631107 C72.4463823,39.8346906 70.4105517,44.1779316 65.7959344,41.8705212 C59.1693058,38.5567997 49.7804621,32.9128664 43.2658042,32.2345277 C36.9154377,31.5732899 34.5795257,33.5916124 32.9508612,37.3916938 C31.0508204,35.7630293 30.6436543,34.5415309 30.6436543,34.5415309" id="path102" fill="#2D2B2C" fill-rule="nonzero"></path>
                <path d="M53.9879133,33.1844463 C53.9879133,33.1844463 58.6025305,30.7414495 57.2452423,25.4482899 C55.887954,20.1551303 49.7804621,16.4906352 45.8445908,14.7259772 C41.9087195,12.9617264 38.9750875,10.6284609 41.9087195,9.16164495 C44.3517162,7.94014658 45.7090045,11.0618893 49.2377097,11.6046417 C52.7664149,12.1473941 55.8881576,10.7903094 56.1595338,8.75447883 C54.6664556,9.56881107 53.5807471,9.56881107 53.5807471,9.56881107 C53.5807471,9.56881107 54.8022455,8.75447883 54.9380354,7.39698697 C55.0736217,6.03990228 54.8022455,6.71864821 53.9879133,6.71864821 C51.9520827,6.71864821 51.6807064,8.48289902 49.916252,8.21131922 C45.4374247,7.80415309 45.1660485,5.90390879 42.7230517,5.63273616 C40.280055,5.36115635 36.2083937,6.71864821 36.7511462,9.83998371 C37.2941022,12.9617264 41.5015533,15.1331433 45.4374247,16.7618078 C49.373296,18.3904723 55.3452015,23.5480456 54.5308693,28.1624593 C53.7165371,32.7772801 50.1876283,31.8269544 50.1876283,31.8269544 L53.9879133,33.1844463 Z" id="path106" fill="#2D2B2C" fill-rule="nonzero"></path>
                <path d="M65.5582512,71.6106474 C65.5582512,71.6106474 67.4922903,70.6436279 68.7137887,65.7576344 C69.5281209,63.99318 70.6138294,62.5680985 71.5639515,62.1609324 C72.5140737,61.7537663 71.1567854,61.3466002 70.4782431,61.4823901 C69.7994971,61.61818 68.3744157,62.2289292 67.4244971,61.4145969 C66.474375,60.6002647 64.1671682,58.4286441 60.9098392,58.9716002 C57.6525102,59.5143526 54.8701405,61.5841816 54.8701405,61.5841816 C54.8701405,61.5841816 56.0916388,56.1892305 63.3528359,56.5286034 C68.3856128,56.7637419 67.2887072,59.3787663 70.6818261,59.9215187 C74.0747414,60.4644748 73.7137887,62.1790513 72.989033,63.5860138 C71.8353278,65.8254275 68.2388294,66.3683836 67.8316633,72.9170399 C67.4244971,73.5955822 64.8797089,72.8321458 65.5582512,71.6106474" id="path110" fill="#2D2B2C" fill-rule="nonzero"></path>
                <path d="M77.160796,37.5551099 C77.4673921,37.2544178 74.7534263,31.1485546 74.7534263,31.1485546 C74.7534263,31.1485546 74.2104703,29.6554764 72.7554621,30.181535 C71.2670664,30.7200122 71.653467,31.7996132 71.653467,31.7996132 L75.1196722,38.0775041 C75.1196722,38.0775041 77.0237846,37.6894748 77.160796,37.5551099" id="path114" fill="#2D2B2C" fill-rule="nonzero"></path>
                <path d="M80.9743954,46.247557 C80.8386055,45.8403909 80.295853,44.2117264 80.295853,44.2117264 L78.0786299,45.9083876 L78.6671885,47.1974756 L80.9743954,46.247557 Z" id="path118" fill="#2D2B2C" fill-rule="nonzero"></path>
                <path d="M56.1595338,34.4059446 C55.7523677,32.9128664 60.9097374,24.2263844 64.4386462,24.769544 C67.9673514,25.3122964 68.5101038,24.2263844 67.4243954,23.5480456 C66.3386869,22.8692997 64.4386462,22.5977199 64.7100224,21.6478013 C64.9813986,20.6978827 65.7279377,19.747557 63.9634833,20.0191368 C62.1992325,20.2907166 58.6025305,22.1909609 56.43091,25.855456 C55.7523677,23.6836319 55.4809914,23.0052932 55.4809914,23.0052932 C55.4809914,23.0052932 62.4028156,15.8118893 69.460226,18.7976384 C68.2387276,19.7479642 64.8458123,19.4763844 67.6959752,21.1050489 C70.546138,22.7337134 72.717555,23.2764658 74.0748432,20.6978827 C74.7533856,20.8334691 74.7533856,26.8053746 65.7957309,26.3982085 C62.6741918,26.8053746 58.4667406,32.9128664 58.4667406,36.0346091 C57.6524084,35.2202769 56.5666999,35.8990228 56.1595338,34.4059446" id="path122" fill="#2D2B2C" fill-rule="nonzero"></path>
                <path d="M83.7633408,64.4343445 C83.7633408,64.4343445 81.981989,59.0829601 82.7242529,54.6623575 C82.8726649,56.0583265 83.7633408,64.4343445 83.7633408,64.4343445" id="path126" fill="#2D2B2C" fill-rule="nonzero"></path>
                <path d="M85.5874247,67.5998168 C85.4970338,67.9377647 84.7588416,58.2836523 84.9353481,57.9428542 C85.1120582,57.6022598 86.1383204,65.5444422 85.5874247,67.5998168" id="path130" fill="#2D2B2C" fill-rule="nonzero"></path>
                <path d="M61.8597577,72.9509365 C61.8597577,72.9509365 69.5281209,73.6294788 68.1708327,76.6832248 C64.0777952,85.8931189 56.2952219,91.2734121 41.9086177,90.730456 C50.0519401,93.987785 56.973807,93.5806698 63.6242121,87.8802932 C66.9493567,85.0301547 68.4884711,81.5609344 69.6807655,78.9057492 C71.5823208,74.6710708 71.0222028,74.2748534 68.9173717,73.0867264 C66.3586441,71.642386 61.9566633,72.5635179 61.8597577,72.9509365" id="path134" fill="#2D2B2C" fill-rule="nonzero"></path>
                <path d="M62.6442182,71.7798086 C62.6442182,71.7798086 64.7541836,70.3266287 66.4109426,71.5098534 C67.1725183,72.2934121 67.6799226,72.7212256 65.5210057,72.6320297 L62.893809,72.7396743 C61.0735403,73.1111156 61.1094646,72.548809 62.6442182,71.7798086 Z" id="path138" fill="#2D2B2C" fill-rule="nonzero"></path>
            </g>
        </g>
    </g>
</svg>